HIERARCHY
ROOT Hips
{
 OFFSET 0.000000 0.000000 0.000000
 CHANNELS 6 Xposition Yposition Zposition Yrotation Xrotation Zrotation
 JOINT Chest
 {
  OFFSET 0.000000 14.634200 -0.016200
  CHANNELS 3 Yrotation Xrotation Zrotation
  JOINT Chest2
  {
   OFFSET 0.000000 8.932900 0.033000
   CHANNELS 3 Yrotation Xrotation Zrotation
   JOINT Chest3
   {
    OFFSET 0.000000 8.892300 0.000000
    CHANNELS 3 Yrotation Xrotation Zrotation
    JOINT Chest4
    {
     OFFSET 0.000000 8.883200 0.000000
     CHANNELS 3 Yrotation Xrotation Zrotation
     JOINT Neck
     {
      OFFSET 0.000000 13.173600 0.000000
      CHANNELS 3 Yrotation Xrotation Zrotation
      JOINT Head
      {
       OFFSET 0.000000 8.324600 0.069800
       CHANNELS 3 Yrotation Xrotation Zrotation
       End Site
       {
        OFFSET 0.000000 15.692400 0.036900
       }
      }
     }
     JOINT RightCollar
     {
      OFFSET -2.619200 8.772200 0.000000
      CHANNELS 3 Yrotation Xrotation Zrotation
      JOINT RightShoulder
      {
       OFFSET -12.922000 0.000000 0.000000
       CHANNELS 3 Yrotation Xrotation Zrotation
       JOINT RightElbow
       {
        OFFSET 0.000000 -27.880900 0.000000
        CHANNELS 3 Yrotation Xrotation Zrotation
        JOINT RightWrist
        {
         OFFSET 0.000000 -22.758700 0.008200
         CHANNELS 3 Yrotation Xrotation Zrotation
         End Site
         {
          OFFSET 0.000000 -16.965000 0.000000
         }
        }
       }
      }
     }
     JOINT LeftCollar
     {
      OFFSET 2.619200 8.772200 0.000000
      CHANNELS 3 Yrotation Xrotation Zrotation
      JOINT LeftShoulder
      {
       OFFSET 12.922000 0.000000 0.000000
       CHANNELS 3 Yrotation Xrotation Zrotation
       JOINT LeftElbow
       {
        OFFSET 0.000000 -27.880900 0.000000
        CHANNELS 3 Yrotation Xrotation Zrotation
        JOINT LeftWrist
        {
         OFFSET 0.000000 -22.758700 0.008200
         CHANNELS 3 Yrotation Xrotation Zrotation
         End Site
         {
          OFFSET 0.000000 -16.965000 0.000000
         }
        }
       }
      }
     }
    }
   }
  }
 }
 JOINT RightHip
 {
  OFFSET -12.026800 0.080100 0.008100
  CHANNELS 3 Yrotation Xrotation Zrotation
  JOINT RightKnee
  {
   OFFSET 0.000000 -42.600800 -0.000200
   CHANNELS 3 Yrotation Xrotation Zrotation
   JOINT RightAnkle
   {
    OFFSET 0.000000 -38.219300 0.054300
    CHANNELS 3 Yrotation Xrotation Zrotation
    JOINT RightToe
    {
     OFFSET 0.000000 -9.685800 15.804700
     CHANNELS 3 Yrotation Xrotation Zrotation
     End Site
     {
      OFFSET 0.000000 -1.422300 5.761700
     }
    }
   }
  }
 }
 JOINT LeftHip
 {
  OFFSET 12.026800 0.080100 0.008100
  CHANNELS 3 Yrotation Xrotation Zrotation
  JOINT LeftKnee
  {
   OFFSET 0.000000 -42.600800 -0.000200
   CHANNELS 3 Yrotation Xrotation Zrotation
   JOINT LeftAnkle
   {
    OFFSET 0.000000 -38.219300 0.054300
    CHANNELS 3 Yrotation Xrotation Zrotation
    JOINT LeftToe
    {
     OFFSET 0.000000 -9.685800 15.804700
     CHANNELS 3 Yrotation Xrotation Zrotation
     End Site
     {
      OFFSET 0.000000 -1.422300 5.761700
     }
    }
   }
  }
 }
}
MOTION
Frames: 14
Frame Time: 0.008333
-15.209394 129.925673 31.199328 169.061052 -28.454621 2.570459 1.365209 19.820031 1.373355 0.139859 2.438876 0.141497 0.219827 4.094422 0.206766 1.139945 17.023445 1.158903 -1.088356 16.073233 1.766471 -1.593581 -8.828957 2.096237 7.960406 -2.331853 -7.304782 21.922695 -27.836589 0.458146 41.825601 -25.355482 -25.191595 14.321298 10.314376 -52.369958 -8.225970 -1.924565 2.855117 -8.804246 -27.861792 -5.122938 -32.944999 -36.832184 15.677585 -7.157414 10.035922 29.794525 7.016219 -46.575162 6.383050 -34.329724 78.268862 -43.318157 -8.638680 -14.627688 5.329873 -0.002085 0.003831 -0.001278 2.294592 -50.839607 -13.534805 99.617172 74.093071 102.389288 11.068378 7.485420 -5.017558 -0.009142 0.007478 -0.005603
-15.207425 129.927879 31.233183 169.030018 -28.528567 2.597341 1.381212 19.793969 1.384397 0.142839 2.492409 0.131691 0.231346 4.055467 0.224008 1.139186 17.074469 1.149381 -1.080776 16.085218 1.763868 -1.567299 -8.743906 2.083268 7.984133 -2.302527 -7.315128 21.882931 -27.849770 0.541392 41.439571 -25.602747 -25.290716 14.156392 10.196213 -52.333847 -8.207601 -1.889106 2.878861 -8.744305 -27.899536 -5.225758 -32.733600 -36.931972 15.537016 -6.735709 9.690024 30.100981 7.029745 -46.496436 6.406618 -34.160694 78.263648 -43.177825 -8.648584 -14.620333 5.292206 -0.004683 0.006618 -0.002870 2.182194 -50.804600 -13.495397 99.696320 74.088858 102.428685 11.150131 7.500142 -5.021977 -0.005082 0.023111 -0.003115
-15.205716 129.929260 31.268618 169.010044 -28.595541 2.616853 1.384977 19.759703 1.391632 0.147868 2.546419 0.125381 0.237683 4.014619 0.236889 1.174656 17.025431 1.166167 -1.112957 16.197688 1.742723 -1.580558 -8.702752 2.079350 7.956894 -2.169975 -7.322695 21.855881 -27.886043 0.611440 41.042062 -25.860329 -25.335468 14.036122 10.098367 -52.277164 -8.208151 -1.757999 2.878367 -8.677747 -27.943867 -5.349097 -32.572512 -37.009088 15.429902 -6.324130 9.355618 30.394233 7.075989 -46.430780 6.409528 -34.080073 78.252096 -43.097255 -8.658622 -14.610365 5.256584 0.000473 0.008266 0.000290 2.059024 -50.777715 -13.455244 99.712662 74.109662 102.427123 11.217657 7.543786 -5.036202 0.002566 0.028298 0.001573
-15.201176 129.944587 31.279380 168.945721 -28.772006 2.663243 1.420778 19.834255 1.392562 0.149385 2.552801 0.127350 0.241830 4.020529 0.237047 1.184890 17.055951 1.162499 -1.115904 16.240984 1.739193 -1.584387 -8.667136 2.076063 7.999409 -2.143034 -7.329647 21.784716 -27.874519 0.667849 40.616357 -26.169090 -25.334242 13.919557 9.989422 -52.254991 -8.206021 -1.699922 2.877383 -8.618964 -27.982712 -5.428927 -32.395900 -37.090449 15.326759 -5.934590 9.014747 30.701789 7.176349 -46.253508 6.391625 -34.050424 78.244186 -43.039888 -8.651110 -14.601178 5.221817 0.004061 -0.001085 0.002489 1.971516 -50.635813 -13.413203 99.735084 74.090103 102.399516 11.287731 7.594908 -4.971731 0.007482 0.006271 0.004585
-15.200719 129.955829 31.297879 168.901432 -28.913376 2.708043 1.437241 19.869190 1.382372 0.149871 2.482048 0.138614 0.247228 4.031227 0.236408 1.195859 17.116906 1.154360 -1.135391 16.342776 1.731838 -1.560662 -8.590506 2.087411 8.034976 -2.078501 -7.334383 21.711354 -27.893182 0.777862 40.154756 -26.443844 -25.317180 13.764949 9.834724 -52.299792 -8.209120 -1.595975 2.868378 -8.547435 -28.025983 -5.516781 -32.213768 -37.180831 15.213166 -5.572398 8.635370 31.041925 7.263082 -46.110807 6.348474 -33.974578 78.242764 -42.940386 -8.638267 -14.599813 5.188959 0.004472 -0.003689 0.002740 1.885047 -50.529915 -13.378975 99.762112 74.051414 102.374456 11.303955 7.633322 -4.972361 0.000192 0.001494 0.000118
-15.200840 129.965708 31.319467 168.862535 -29.042698 2.748485 1.449477 19.888990 1.372933 0.150385 2.459962 0.141524 0.250311 4.039774 0.235864 1.207657 17.132364 1.152300 -1.139830 16.422385 1.732184 -1.570780 -8.546401 2.088633 8.063322 -2.008725 -7.338277 21.671395 -27.905940 0.876602 39.626511 -26.754086 -25.288097 13.533849 9.617404 -52.438483 -8.201716 -1.500682 2.868116 -8.459453 -28.059159 -5.629705 -32.029869 -37.282085 15.091581 -5.206707 8.172680 31.444478 7.328287 -45.980207 6.313305 -33.890934 78.242672 -42.844604 -8.628374 -14.601794 5.157717 0.003740 -0.003874 0.002292 1.801990 -50.434737 -13.340237 99.827276 74.013255 102.373394 11.324980 7.646197 -4.954600 -0.010471 0.008012 -0.006418
-15.199341 129.976231 31.340568 168.822753 -29.177341 2.782257 1.464531 19.912307 1.370932 0.151534 2.464811 0.141382 0.252325 4.047392 0.235660 1.210677 17.189869 1.146252 -1.133712 16.432598 1.741272 -1.579577 -8.501089 2.087547 8.092227 -1.997613 -7.344559 21.665463 -27.901338 0.945093 39.030905 -27.107627 -25.247176 13.213901 9.307114 -52.695816 -8.177458 -1.471775 2.882463 -8.363978 -28.083029 -5.755578 -31.840598 -37.392494 14.963875 -4.811105 7.602893 31.937336 7.396386 -45.846833 6.278419 -33.816480 78.243712 -42.751697 -8.623845 -14.603533 5.130528 0.000171 -0.005176 0.000105 1.779505 -50.316977 -13.325546 99.830134 73.988633 102.351125 11.360197 7.658512 -4.919867 -0.005517 0.015202 -0.003381
-15.198478 129.985314 31.364431 168.807074 -29.302058 2.803760 1.463715 19.980885 1.364314 0.151320 2.412794 0.147961 0.253775 4.055023 0.235799 1.217727 17.181849 1.148420 -1.131472 16.452149 1.762050 -1.590505 -8.409685 2.104439 8.091610 -1.899015 -7.342231 21.704715 -27.905555 0.994256 38.383808 -27.467179 -25.200276 12.833369 8.899294 -53.073139 -8.136253 -1.394195 2.907601 -8.277323 -28.082673 -5.916108 -31.641784 -37.513721 14.836704 -4.398372 6.930244 32.503901 7.460566 -45.727844 6.227370 -33.779285 78.249782 -42.679912 -8.627178 -14.605484 5.118098 0.001321 -0.003627 0.000810 1.651505 -50.236666 -13.270332 99.767883 73.934895 102.259940 11.339958 7.735734 -4.916152 -0.001490 0.004169 -0.000913
-15.194825 129.995105 31.387286 168.784975 -29.434523 2.818009 1.468569 19.973310 1.378627 0.153032 2.446150 0.145153 0.254848 4.062391 0.235996 1.223790 17.173233 1.151568 -1.140328 16.508439 1.763202 -1.597267 -8.372551 2.110106 8.115372 -1.837321 -7.347523 21.721215 -27.867969 1.068190 37.707965 -27.824227 -25.147250 12.425161 8.435414 -53.542209 -8.131502 -1.300218 2.906300 -8.189758 -28.079840 -6.035345 -31.434887 -37.645120 14.722359 -3.998104 6.179690 33.111357 7.514582 -45.603629 6.199742 -33.762067 78.254807 -42.631834 -8.635834 -14.605621 5.105893 0.005146 -0.003858 0.003154 1.512833 -50.147457 -13.195338 99.765977 73.893664 102.214705 11.391530 7.797170 -4.894133 0.010420 0.002240 0.006386
-15.196766 130.004036 31.410913 168.757263 -29.560209 2.855903 1.469020 19.962161 1.371527 0.157223 2.531654 0.134153 0.253180 4.017038 0.243523 1.227499 17.186384 1.151923 -1.146835 16.538991 1.764623 -1.604625 -8.339589 2.113404 8.158662 -1.843831 -7.372069 21.699418 -27.792397 1.189196 37.030836 -28.184452 -25.086223 12.006253 7.953773 -54.052874 -8.131148 -1.229878 2.906344 -8.147184 -28.070121 -6.104257 -31.191582 -37.792463 14.597936 -3.639619 5.390946 33.735019 7.569763 -45.478785 6.166882 -33.734812 78.255541 -42.600157 -8.674645 -14.628112 5.068165 0.002546 -0.007066 0.001560 1.417808 -50.056409 -13.149984 99.786192 73.880272 102.195052 11.410498 7.840060 -4.922919 0.006086 0.003593 0.003730
-15.197250 130.013217 31.433953 168.727435 -29.690805 2.889947 1.470424 19.984714 1.365829 0.156713 2.510540 0.137752 0.258011 4.099164 0.232438 1.228214 17.151827 1.158745 -1.152221 16.594724 1.756617 -1.612091 -8.337253 2.121760 8.170647 -1.794739 -7.384713 21.694994 -27.776207 1.290020 36.378384 -28.545538 -25.017398 11.586715 7.465843 -54.559376 -8.130649 -1.169230 2.901547 -8.110262 -28.048895 -6.166039 -30.971932 -37.938661 14.482110 -3.337312 4.584872 34.339882 7.668908 -45.357035 6.117209 -33.814807 78.252729 -42.649364 -8.715697 -14.643509 5.056711 0.001850 -0.010795 0.001134 1.383190 -49.944983 -13.133728 99.760488 73.889677 102.174867 11.433238 7.885425 -4.931404 0.013494 0.006106 0.008270
-15.194717 130.022654 31.456588 168.700279 -29.827361 2.911806 1.478872 20.067553 1.366358 0.152028 2.435068 0.148360 0.258155 4.109630 0.232199 1.227359 17.192968 1.152511 -1.157409 16.603583 1.758741 -1.616879 -8.298168 2.116743 8.176877 -1.731130 -7.389826 21.672877 -27.788164 1.395266 35.752776 -28.898044 -24.933733 11.167979 6.950976 -55.049346 -8.128505 -1.105308 2.888617 -8.077807 -28.041358 -6.264809 -30.840673 -38.044054 14.438763 -3.076392 3.751612 34.930204 7.746225 -45.227160 6.103009 -33.946894 78.233015 -42.765745 -8.753001 -14.650475 5.063459 0.001131 -0.013187 0.000693 1.174703 -49.868977 -12.996377 99.895006 73.890126 102.215097 11.506216 7.955596 -4.914532 0.026256 0.008927 0.016092
-15.196417 130.030722 31.481048 168.677971 -29.954984 2.946612 1.475327 20.059885 1.358215 0.153610 2.468514 0.144178 0.256152 4.095523 0.235460 1.224084 17.234079 1.144969 -1.162665 16.608795 1.761374 -1.620996 -8.264337 2.114086 8.182129 -1.670361 -7.391006 21.630675 -27.815212 1.508901 35.130558 -29.245076 -24.813635 10.760738 6.383382 -55.528307 -8.125561 -1.046598 2.879702 -8.072201 -28.033109 -6.291387 -30.726519 -38.170847 14.364169 -2.837883 2.854033 35.581663 7.800207 -45.098477 6.098532 -34.060436 78.196396 -42.935023 -8.767875 -14.640816 5.127324 -0.018029 -0.012567 -0.011048 0.943450 -49.814024 -12.857947 100.083861 73.898905 102.289508 11.565145 8.024413 -4.930293 0.030642 0.008098 0.018780
-15.199039 130.039136 31.504778 168.655886 -30.087823 2.985880 1.474393 20.056854 1.345950 0.153713 2.501967 0.140963 0.255611 4.105323 0.235087 1.219199 17.290095 1.137463 -1.164972 16.617537 1.761648 -1.627002 -8.276724 2.120640 8.195392 -1.662745 -7.399187 21.567989 -27.841994 1.628151 34.491879 -29.603627 -24.645917 10.378422 5.778788 -55.982312 -8.109899 -1.111486 2.889409 -8.064687 -27.974639 -6.341359 -30.641407 -38.270593 14.265581 -2.586375 1.873152 36.298000 7.832512 -44.964062 6.090834 -34.064302 78.182545 -42.978495 -8.763811 -14.632433 5.173414 -0.044137 -0.009123 -0.027047 0.743866 -49.754292 -12.751455 100.277581 73.913708 102.388341 11.599356 8.091886 -4.953097 0.050782 0.010927 0.031123
